<?xml version="1.0" encoding="UTF-8"?>
<!-- Generator: Adobe Illustrator 27.6.0, SVG Export Plug-In . SVG Version: 6.00 Build 0)  -->
<svg xmlns="http://www.w3.org/2000/svg" xmlns:xlink="http://www.w3.org/1999/xlink" version="1.1" id="Layer_1" x="0px" y="0px" viewBox="0 0 310.1 103.4" style="enable-background:new 0 0 310.1 103.4;" xml:space="preserve">
<style type="text/css">
	.st0{clip-path:url(#SVGID_00000172413251765707228820000004432854476117243577_);fill:#005072;}
	.st1{clip-path:url(#SVGID_00000172413251765707228820000004432854476117243577_);fill:#0C9ED9;}
</style>
<g>
	<defs>
		<rect id="SVGID_1_" x="5.2" y="-21.1" width="325.6" height="154.7"></rect>
	</defs>
	<clipPath id="SVGID_00000013181134353794330700000012664968435576150409_">
		<use xlink:href="#SVGID_1_" style="overflow:visible;"></use>
	</clipPath>
	<path style="clip-path:url(#SVGID_00000013181134353794330700000012664968435576150409_);fill:#005072;" d="M105.8,63.5   c-2.4,0-4.5-0.5-6.5-1.4c-1.9-0.9-3.6-2.2-5-3.7c-1.4-1.5-2.5-3.3-3.2-5.3c-0.8-2-1.1-4-1.1-6.1c0-2.2,0.4-4.2,1.2-6.2   c0.8-2,1.9-3.7,3.3-5.2c1.4-1.5,3.1-2.7,5-3.6c1.9-0.9,4.1-1.3,6.3-1.3c2.3,0,4.5,0.5,6.4,1.4c1.9,1,3.6,2.2,4.9,3.8   c1.4,1.6,2.4,3.3,3.2,5.3c0.8,2,1.1,4,1.1,6c0,2.2-0.4,4.2-1.2,6.2c-0.8,2-1.9,3.7-3.3,5.2c-1.4,1.5-3.1,2.7-5,3.6   C110.2,63,108.1,63.5,105.8,63.5 M96.4,47c0,1.4,0.2,2.8,0.6,4.1c0.4,1.3,1,2.5,1.8,3.5c0.8,1,1.8,1.8,3,2.4c1.2,0.6,2.5,0.9,4,0.9   c1.5,0,2.9-0.3,4-0.9c1.2-0.6,2.2-1.4,3-2.5c0.8-1,1.4-2.2,1.8-3.5c0.4-1.3,0.6-2.6,0.6-3.9c0-1.4-0.2-2.8-0.7-4.1   c-0.4-1.3-1.1-2.5-1.9-3.5c-0.8-1-1.8-1.8-3-2.4c-1.2-0.6-2.5-0.9-3.9-0.9c-1.5,0-2.9,0.3-4.1,0.9c-1.2,0.6-2.2,1.4-3,2.5   c-0.8,1-1.4,2.2-1.8,3.5C96.6,44.4,96.4,45.7,96.4,47"></path>
	<path style="clip-path:url(#SVGID_00000013181134353794330700000012664968435576150409_);fill:#005072;" d="M148.1,63.2H142V49.8   c0-1.9-0.3-3.3-1-4.2c-0.7-0.9-1.6-1.3-2.8-1.3c-0.6,0-1.2,0.1-1.9,0.4c-0.6,0.2-1.2,0.6-1.8,1c-0.6,0.4-1.1,1-1.5,1.6   c-0.5,0.6-0.8,1.3-1,2v14h-6.1V39.3h5.5v4.4c0.9-1.5,2.2-2.7,3.8-3.6c1.7-0.9,3.6-1.3,5.7-1.3c1.5,0,2.7,0.3,3.7,0.8   c0.9,0.5,1.7,1.3,2.2,2.1c0.5,0.9,0.9,1.9,1.1,3c0.2,1.1,0.3,2.3,0.3,3.4V63.2z"></path>
	<path style="clip-path:url(#SVGID_00000013181134353794330700000012664968435576150409_);fill:#005072;" d="M152.9,51.3   c0-1.7,0.3-3.3,0.9-4.7c0.6-1.5,1.4-2.8,2.5-3.9s2.4-2,4-2.7c1.6-0.7,3.3-1,5.2-1c2.6,0,4.8,0.6,6.7,1.7c1.8,1.1,3.2,2.6,4.1,4.4   l-6,1.8c-0.5-0.9-1.2-1.6-2.1-2c-0.9-0.5-1.8-0.7-2.8-0.7c-0.9,0-1.7,0.2-2.5,0.5c-0.8,0.4-1.4,0.8-2,1.5c-0.6,0.6-1,1.4-1.3,2.3   c-0.3,0.9-0.5,1.9-0.5,2.9c0,1.1,0.2,2,0.5,2.9c0.3,0.9,0.8,1.6,1.3,2.3c0.6,0.6,1.2,1.1,2,1.5c0.8,0.3,1.6,0.5,2.4,0.5   c1.1,0,2.1-0.3,3-0.8c0.9-0.5,1.6-1.2,1.9-2l6,1.8c-0.8,1.8-2.2,3.3-4.1,4.5c-1.9,1.2-4.1,1.7-6.8,1.7c-1.9,0-3.7-0.3-5.2-1   c-1.6-0.7-2.9-1.6-4-2.7c-1.1-1.1-1.9-2.5-2.5-4C153.2,54.5,152.9,52.9,152.9,51.3"></path>
	<path style="clip-path:url(#SVGID_00000013181134353794330700000012664968435576150409_);fill:#005072;" d="M191.4,63.7   c-1.9,0-3.7-0.3-5.2-1c-1.6-0.7-2.9-1.6-3.9-2.7c-1.1-1.1-1.9-2.5-2.5-3.9c-0.6-1.5-0.9-3.1-0.9-4.7c0-1.7,0.3-3.3,0.9-4.7   c0.6-1.5,1.4-2.8,2.5-3.9c1.1-1.1,2.4-2,3.9-2.7c1.6-0.7,3.3-1,5.2-1c1.9,0,3.7,0.3,5.2,1c1.5,0.7,2.8,1.6,3.9,2.7   c1.1,1.1,1.9,2.5,2.5,3.9c0.6,1.5,0.9,3.1,0.9,4.7c0,1.6-0.3,3.2-0.9,4.7c-0.6,1.5-1.4,2.8-2.5,3.9c-1.1,1.1-2.4,2-3.9,2.7   C195.1,63.3,193.4,63.7,191.4,63.7 M185.2,51.3c0,1.1,0.2,2,0.5,2.9c0.3,0.9,0.8,1.6,1.3,2.3c0.6,0.6,1.2,1.1,2,1.5   c0.8,0.3,1.6,0.5,2.5,0.5s1.7-0.2,2.5-0.5c0.8-0.3,1.4-0.8,2-1.5c0.6-0.6,1-1.4,1.3-2.3c0.3-0.9,0.5-1.9,0.5-2.9c0-1-0.2-2-0.5-2.9   c-0.3-0.9-0.8-1.6-1.3-2.3c-0.6-0.6-1.2-1.1-2-1.5c-0.8-0.3-1.6-0.5-2.5-0.5s-1.7,0.2-2.5,0.5c-0.8,0.4-1.4,0.9-2,1.5   c-0.6,0.6-1,1.4-1.3,2.3C185.3,49.3,185.2,50.3,185.2,51.3"></path>
	<path style="clip-path:url(#SVGID_00000013181134353794330700000012664968435576150409_);fill:#005072;" d="M208.3,63.2V30.8h11.8   c2.6,0,5,0.4,7,1.3c2,0.9,3.7,2,5,3.5c1.3,1.5,2.3,3.2,3,5.1c0.7,2,1,4.1,1,6.3c0,2.5-0.4,4.7-1.1,6.7c-0.7,2-1.8,3.7-3.2,5.1   c-1.4,1.4-3.1,2.5-5,3.3c-2,0.8-4.2,1.2-6.6,1.2H208.3z M229.7,47c0-1.6-0.2-3-0.6-4.3c-0.4-1.3-1-2.4-1.9-3.4   c-0.8-0.9-1.8-1.7-3-2.2c-1.2-0.5-2.6-0.8-4.1-0.8h-5.5v21.3h5.5c1.6,0,2.9-0.3,4.1-0.8c1.2-0.5,2.2-1.3,3-2.3   c0.8-1,1.4-2.1,1.8-3.4C229.5,49.9,229.7,48.5,229.7,47"></path>
	<polygon style="clip-path:url(#SVGID_00000013181134353794330700000012664968435576150409_);fill:#005072;" points="247.2,42.5    247.2,63.2 241,63.2 241,30.8 245.8,30.8 262.7,52.1 262.7,30.9 269,30.9 269,63.2 263.9,63.2  "></polygon>
	<path style="clip-path:url(#SVGID_00000013181134353794330700000012664968435576150409_);fill:#005072;" d="M285,30.8h5.6   l12.3,32.4h-6.5l-3-8.1h-11.3l-3,8.1h-6.5L285,30.8z M292.2,50.7L287.8,38l-4.7,12.7H292.2z"></path>
	<polygon style="clip-path:url(#SVGID_00000013181134353794330700000012664968435576150409_);fill:#0C9ED9;" points="96.5,70.9    93.9,70.9 93.9,77.6 92.4,77.6 92.4,70.9 89.8,70.9 89.8,69.5 96.5,69.5  "></polygon>
	<polygon style="clip-path:url(#SVGID_00000013181134353794330700000012664968435576150409_);fill:#0C9ED9;" points="104.3,69.5    104.3,77.6 102.8,77.6 102.8,74.2 99.1,74.2 99.1,77.6 97.5,77.6 97.5,69.5 99.1,69.5 99.1,72.8 102.8,72.8 102.8,69.5  "></polygon>
	<polygon style="clip-path:url(#SVGID_00000013181134353794330700000012664968435576150409_);fill:#0C9ED9;" points="111.6,76.2    111.6,77.6 106,77.6 106,69.5 111.5,69.5 111.5,70.9 107.6,70.9 107.6,72.9 111,72.9 111,74.1 107.6,74.1 107.6,76.2  "></polygon>
	<path style="clip-path:url(#SVGID_00000013181134353794330700000012664968435576150409_);fill:#0C9ED9;" d="M115.1,73.5   c0-0.5,0.1-1,0.3-1.5c0.2-0.5,0.4-0.9,0.8-1.3c0.3-0.4,0.8-0.7,1.3-0.9c0.5-0.2,1.1-0.4,1.7-0.4c0.7,0,1.4,0.2,1.9,0.5   c0.5,0.3,0.9,0.8,1.2,1.3l-1.2,0.8c-0.1-0.2-0.2-0.4-0.4-0.6c-0.2-0.2-0.3-0.3-0.5-0.4c-0.2-0.1-0.4-0.2-0.5-0.2   c-0.2,0-0.4-0.1-0.6-0.1c-0.4,0-0.7,0.1-1,0.2c-0.3,0.2-0.5,0.4-0.7,0.6c-0.2,0.3-0.3,0.5-0.4,0.9c-0.1,0.3-0.1,0.6-0.1,1   c0,0.4,0.1,0.7,0.2,1c0.1,0.3,0.3,0.6,0.5,0.9c0.2,0.3,0.5,0.5,0.8,0.6c0.3,0.2,0.6,0.2,1,0.2c0.2,0,0.4,0,0.6-0.1   c0.2,0,0.4-0.1,0.6-0.2c0.2-0.1,0.3-0.2,0.5-0.4c0.2-0.2,0.3-0.3,0.4-0.6l1.3,0.7c-0.1,0.3-0.3,0.6-0.6,0.8   c-0.2,0.2-0.5,0.4-0.8,0.6c-0.3,0.2-0.6,0.3-1,0.4c-0.3,0.1-0.7,0.1-1,0.1c-0.6,0-1.1-0.1-1.6-0.4c-0.5-0.2-0.9-0.6-1.2-1   c-0.3-0.4-0.6-0.8-0.8-1.3C115.2,74.5,115.1,74,115.1,73.5"></path>
	<path style="clip-path:url(#SVGID_00000013181134353794330700000012664968435576150409_);fill:#0C9ED9;" d="M125.6,69.5h1.4   l3.1,8.1h-1.6l-0.8-2h-2.8l-0.7,2h-1.6L125.6,69.5z M127.4,74.5l-1.1-3.2l-1.2,3.2H127.4z"></path>
	<polygon style="clip-path:url(#SVGID_00000013181134353794330700000012664968435576150409_);fill:#0C9ED9;" points="132.5,72.4    132.5,77.6 131,77.6 131,69.5 132.2,69.5 136.4,74.8 136.4,69.5 138,69.5 138,77.6 136.7,77.6  "></polygon>
	<path style="clip-path:url(#SVGID_00000013181134353794330700000012664968435576150409_);fill:#0C9ED9;" d="M139.2,73.5   c0-0.5,0.1-1,0.3-1.5c0.2-0.5,0.4-0.9,0.8-1.3c0.3-0.4,0.8-0.7,1.3-0.9c0.5-0.2,1.1-0.4,1.7-0.4c0.7,0,1.4,0.2,1.9,0.5   c0.5,0.3,0.9,0.8,1.2,1.3l-1.2,0.8c-0.1-0.2-0.2-0.4-0.4-0.6c-0.2-0.2-0.3-0.3-0.5-0.4c-0.2-0.1-0.4-0.2-0.5-0.2   c-0.2,0-0.4-0.1-0.6-0.1c-0.4,0-0.7,0.1-1,0.2c-0.3,0.2-0.5,0.4-0.7,0.6c-0.2,0.3-0.3,0.5-0.4,0.9c-0.1,0.3-0.1,0.6-0.1,1   c0,0.4,0.1,0.7,0.2,1c0.1,0.3,0.3,0.6,0.5,0.9c0.2,0.3,0.5,0.5,0.8,0.6c0.3,0.2,0.6,0.2,1,0.2c0.2,0,0.4,0,0.6-0.1   c0.2,0,0.4-0.1,0.6-0.2c0.2-0.1,0.3-0.2,0.5-0.4c0.2-0.2,0.3-0.3,0.4-0.6l1.3,0.7c-0.1,0.3-0.3,0.6-0.6,0.8   c-0.2,0.2-0.5,0.4-0.8,0.6c-0.3,0.2-0.6,0.3-1,0.4c-0.3,0.1-0.7,0.1-1,0.1c-0.6,0-1.1-0.1-1.6-0.4c-0.5-0.2-0.9-0.6-1.2-1   c-0.3-0.4-0.6-0.8-0.8-1.3S139.2,74,139.2,73.5"></path>
	<polygon style="clip-path:url(#SVGID_00000013181134353794330700000012664968435576150409_);fill:#0C9ED9;" points="153.1,76.2    153.1,77.6 147.5,77.6 147.5,69.5 153,69.5 153,70.9 149.1,70.9 149.1,72.9 152.5,72.9 152.5,74.1 149.1,74.1 149.1,76.2  "></polygon>
	<path style="clip-path:url(#SVGID_00000013181134353794330700000012664968435576150409_);fill:#0C9ED9;" d="M154.3,77.6v-8.1h3.6   c0.4,0,0.7,0.1,1,0.2c0.3,0.2,0.6,0.4,0.8,0.6c0.2,0.3,0.4,0.5,0.5,0.9c0.1,0.3,0.2,0.6,0.2,1c0,0.5-0.1,1-0.4,1.4   s-0.6,0.7-1.1,0.9l1.8,3h-1.8l-1.7-2.7h-1.6v2.7H154.3z M155.9,73.5h2c0.1,0,0.3,0,0.4-0.1c0.1-0.1,0.2-0.2,0.3-0.3   c0.1-0.1,0.2-0.3,0.2-0.4c0.1-0.2,0.1-0.3,0.1-0.5c0-0.2,0-0.4-0.1-0.5c-0.1-0.2-0.1-0.3-0.2-0.4c-0.1-0.1-0.2-0.2-0.4-0.3   s-0.3-0.1-0.4-0.1h-1.9V73.5z"></path>
	<polygon style="clip-path:url(#SVGID_00000013181134353794330700000012664968435576150409_);fill:#0C9ED9;" points="170.4,70.9    167.8,70.9 167.8,77.6 166.2,77.6 166.2,70.9 163.7,70.9 163.7,69.5 170.4,69.5  "></polygon>
	<polygon style="clip-path:url(#SVGID_00000013181134353794330700000012664968435576150409_);fill:#0C9ED9;" points="178.2,69.5    178.2,77.6 176.6,77.6 176.6,74.2 173,74.2 173,77.6 171.4,77.6 171.4,69.5 173,69.5 173,72.8 176.6,72.8 176.6,69.5  "></polygon>
	<polygon style="clip-path:url(#SVGID_00000013181134353794330700000012664968435576150409_);fill:#0C9ED9;" points="185.5,76.2    185.5,77.6 179.9,77.6 179.9,69.5 185.4,69.5 185.4,70.9 181.5,70.9 181.5,72.9 184.9,72.9 184.9,74.1 181.5,74.1 181.5,76.2  "></polygon>
	<path style="clip-path:url(#SVGID_00000013181134353794330700000012664968435576150409_);fill:#0C9ED9;" d="M186.7,77.6v-8.1h3.6   c0.4,0,0.7,0.1,1,0.2c0.3,0.2,0.6,0.4,0.8,0.6c0.2,0.3,0.4,0.5,0.5,0.9c0.1,0.3,0.2,0.6,0.2,1c0,0.5-0.1,1-0.4,1.4   c-0.3,0.4-0.6,0.7-1.1,0.9l1.8,3h-1.8l-1.7-2.7h-1.6v2.7H186.7z M188.3,73.5h2c0.1,0,0.3,0,0.4-0.1c0.1-0.1,0.2-0.2,0.3-0.3   c0.1-0.1,0.2-0.3,0.2-0.4c0.1-0.2,0.1-0.3,0.1-0.5c0-0.2,0-0.4-0.1-0.5c-0.1-0.2-0.1-0.3-0.2-0.4c-0.1-0.1-0.2-0.2-0.4-0.3   c-0.1-0.1-0.3-0.1-0.4-0.1h-1.9V73.5z"></path>
	<path style="clip-path:url(#SVGID_00000013181134353794330700000012664968435576150409_);fill:#0C9ED9;" d="M196.5,69.5h1.4   l3.1,8.1h-1.6l-0.8-2h-2.8l-0.7,2h-1.6L196.5,69.5z M198.3,74.5l-1.1-3.2l-1.2,3.2H198.3z"></path>
	<polygon style="clip-path:url(#SVGID_00000013181134353794330700000012664968435576150409_);fill:#0C9ED9;" points="203.4,72.4    203.4,77.6 201.9,77.6 201.9,69.5 203.1,69.5 207.3,74.8 207.3,69.5 208.9,69.5 208.9,77.6 207.6,77.6  "></polygon>
	<path style="clip-path:url(#SVGID_00000013181134353794330700000012664968435576150409_);fill:#0C9ED9;" d="M214,77.7   c-0.6,0-1.1-0.1-1.6-0.3c-0.5-0.2-0.9-0.5-1.2-0.9c-0.3-0.4-0.6-0.8-0.8-1.3c-0.2-0.5-0.3-1-0.3-1.5c0-0.5,0.1-1.1,0.3-1.6   c0.2-0.5,0.5-0.9,0.8-1.3c0.4-0.4,0.8-0.7,1.3-0.9c0.5-0.2,1-0.3,1.6-0.3c0.6,0,1.1,0.1,1.6,0.4c0.5,0.2,0.9,0.6,1.2,0.9   c0.3,0.4,0.6,0.8,0.8,1.3c0.2,0.5,0.3,1,0.3,1.5c0,0.5-0.1,1.1-0.3,1.5c-0.2,0.5-0.5,0.9-0.8,1.3c-0.3,0.4-0.8,0.7-1.3,0.9   C215.1,77.6,214.6,77.7,214,77.7 M211.7,73.6c0,0.3,0.1,0.7,0.2,1c0.1,0.3,0.3,0.6,0.5,0.9s0.4,0.5,0.7,0.6c0.3,0.2,0.6,0.2,1,0.2   c0.4,0,0.7-0.1,1-0.2s0.5-0.4,0.7-0.6c0.2-0.3,0.4-0.6,0.5-0.9c0.1-0.3,0.2-0.7,0.2-1c0-0.3-0.1-0.7-0.2-1   c-0.1-0.3-0.3-0.6-0.5-0.9c-0.2-0.3-0.4-0.4-0.7-0.6c-0.3-0.1-0.6-0.2-1-0.2c-0.4,0-0.7,0.1-1,0.2c-0.3,0.2-0.5,0.4-0.7,0.6   c-0.2,0.3-0.3,0.5-0.4,0.9C211.7,72.9,211.7,73.2,211.7,73.6"></path>
	<path style="clip-path:url(#SVGID_00000013181134353794330700000012664968435576150409_);fill:#0C9ED9;" d="M224,71.7   c-0.1-0.1-0.1-0.1-0.3-0.2c-0.1-0.1-0.3-0.2-0.5-0.3s-0.4-0.2-0.7-0.2c-0.2-0.1-0.5-0.1-0.7-0.1c-0.4,0-0.8,0.1-1,0.2   c-0.2,0.2-0.3,0.4-0.3,0.7c0,0.2,0,0.3,0.1,0.4s0.2,0.2,0.3,0.3c0.1,0.1,0.3,0.2,0.6,0.2c0.2,0.1,0.5,0.1,0.8,0.2   c0.4,0.1,0.8,0.2,1.1,0.3c0.3,0.1,0.6,0.3,0.8,0.5c0.2,0.2,0.4,0.4,0.5,0.7c0.1,0.3,0.2,0.6,0.2,0.9c0,0.4-0.1,0.8-0.2,1.1   c-0.2,0.3-0.4,0.6-0.7,0.7c-0.3,0.2-0.6,0.3-1,0.4c-0.4,0.1-0.7,0.1-1.1,0.1c-0.6,0-1.2-0.1-1.8-0.3c-0.6-0.2-1.1-0.4-1.6-0.8   l0.7-1.4c0.1,0.1,0.2,0.2,0.4,0.3c0.2,0.1,0.4,0.2,0.6,0.3c0.2,0.1,0.5,0.2,0.8,0.3c0.3,0.1,0.6,0.1,0.9,0.1c0.9,0,1.3-0.3,1.3-0.8   c0-0.2,0-0.3-0.1-0.4c-0.1-0.1-0.2-0.2-0.4-0.3c-0.2-0.1-0.4-0.2-0.7-0.3c-0.3-0.1-0.5-0.2-0.9-0.3c-0.4-0.1-0.7-0.2-1-0.3   c-0.3-0.1-0.5-0.3-0.7-0.4c-0.2-0.2-0.3-0.4-0.4-0.6c-0.1-0.2-0.1-0.5-0.1-0.8c0-0.4,0.1-0.8,0.2-1.1c0.2-0.3,0.4-0.6,0.6-0.8   c0.3-0.2,0.6-0.4,0.9-0.5s0.7-0.2,1.1-0.2c0.6,0,1.1,0.1,1.6,0.3s0.9,0.4,1.3,0.6L224,71.7z"></path>
	<polygon style="clip-path:url(#SVGID_00000013181134353794330700000012664968435576150409_);fill:#0C9ED9;" points="232.2,70.9    229.6,70.9 229.6,77.6 228,77.6 228,70.9 225.4,70.9 225.4,69.5 232.2,69.5  "></polygon>
	
		<rect x="233.2" y="69.5" style="clip-path:url(#SVGID_00000013181134353794330700000012664968435576150409_);fill:#0C9ED9;" width="1.6" height="8.1"></rect>
	<path style="clip-path:url(#SVGID_00000013181134353794330700000012664968435576150409_);fill:#0C9ED9;" d="M235.9,73.5   c0-0.5,0.1-1,0.3-1.5c0.2-0.5,0.4-0.9,0.8-1.3c0.3-0.4,0.8-0.7,1.3-0.9c0.5-0.2,1.1-0.4,1.7-0.4c0.7,0,1.4,0.2,1.9,0.5   c0.5,0.3,0.9,0.8,1.2,1.3l-1.2,0.8c-0.1-0.2-0.2-0.4-0.4-0.6c-0.2-0.2-0.3-0.3-0.5-0.4c-0.2-0.1-0.4-0.2-0.5-0.2   c-0.2,0-0.4-0.1-0.6-0.1c-0.4,0-0.7,0.1-1,0.2c-0.3,0.2-0.5,0.4-0.7,0.6c-0.2,0.3-0.3,0.5-0.4,0.9c-0.1,0.3-0.1,0.6-0.1,1   c0,0.4,0.1,0.7,0.2,1c0.1,0.3,0.3,0.6,0.5,0.9c0.2,0.3,0.5,0.5,0.8,0.6c0.3,0.2,0.6,0.2,1,0.2c0.2,0,0.4,0,0.6-0.1   c0.2,0,0.4-0.1,0.6-0.2c0.2-0.1,0.3-0.2,0.5-0.4c0.2-0.2,0.3-0.3,0.4-0.6l1.3,0.7c-0.1,0.3-0.3,0.6-0.6,0.8s-0.5,0.4-0.8,0.6   c-0.3,0.2-0.6,0.3-1,0.4c-0.3,0.1-0.7,0.1-1,0.1c-0.6,0-1.1-0.1-1.6-0.4c-0.5-0.2-0.9-0.6-1.2-1c-0.3-0.4-0.6-0.8-0.8-1.3   C236,74.5,235.9,74,235.9,73.5"></path>
	<path style="clip-path:url(#SVGID_00000013181134353794330700000012664968435576150409_);fill:#0C9ED9;" d="M246.5,73.5   c0-0.5,0.1-1,0.3-1.5c0.2-0.5,0.4-0.9,0.8-1.3c0.3-0.4,0.8-0.7,1.3-0.9c0.5-0.2,1.1-0.4,1.7-0.4c0.7,0,1.4,0.2,1.9,0.5   c0.5,0.3,0.9,0.8,1.2,1.3l-1.2,0.8c-0.1-0.2-0.2-0.4-0.4-0.6c-0.2-0.2-0.3-0.3-0.5-0.4c-0.2-0.1-0.4-0.2-0.5-0.2   c-0.2,0-0.4-0.1-0.6-0.1c-0.4,0-0.7,0.1-1,0.2c-0.3,0.2-0.5,0.4-0.7,0.6c-0.2,0.3-0.3,0.5-0.4,0.9c-0.1,0.3-0.1,0.6-0.1,1   c0,0.4,0.1,0.7,0.2,1c0.1,0.3,0.3,0.6,0.5,0.9c0.2,0.3,0.5,0.5,0.8,0.6c0.3,0.2,0.6,0.2,1,0.2c0.2,0,0.4,0,0.6-0.1   c0.2,0,0.4-0.1,0.6-0.2c0.2-0.1,0.3-0.2,0.5-0.4c0.2-0.2,0.3-0.3,0.4-0.6l1.3,0.7c-0.1,0.3-0.3,0.6-0.6,0.8s-0.5,0.4-0.8,0.6   c-0.3,0.2-0.6,0.3-1,0.4c-0.3,0.1-0.7,0.1-1,0.1c-0.6,0-1.1-0.1-1.6-0.4c-0.5-0.2-0.9-0.6-1.2-1c-0.3-0.4-0.6-0.8-0.8-1.3   C246.6,74.5,246.5,74,246.5,73.5"></path>
	<path style="clip-path:url(#SVGID_00000013181134353794330700000012664968435576150409_);fill:#0C9ED9;" d="M258.2,77.7   c-0.6,0-1.1-0.1-1.6-0.3c-0.5-0.2-0.9-0.5-1.2-0.9c-0.3-0.4-0.6-0.8-0.8-1.3c-0.2-0.5-0.3-1-0.3-1.5c0-0.5,0.1-1.1,0.3-1.6   c0.2-0.5,0.5-0.9,0.8-1.3c0.4-0.4,0.8-0.7,1.3-0.9c0.5-0.2,1-0.3,1.6-0.3c0.6,0,1.1,0.1,1.6,0.4c0.5,0.2,0.9,0.6,1.2,0.9   c0.3,0.4,0.6,0.8,0.8,1.3c0.2,0.5,0.3,1,0.3,1.5c0,0.5-0.1,1.1-0.3,1.5c-0.2,0.5-0.5,0.9-0.8,1.3c-0.3,0.4-0.8,0.7-1.3,0.9   C259.3,77.6,258.7,77.7,258.2,77.7 M255.8,73.6c0,0.3,0.1,0.7,0.2,1c0.1,0.3,0.3,0.6,0.5,0.9c0.2,0.3,0.4,0.5,0.7,0.6   c0.3,0.2,0.6,0.2,1,0.2c0.4,0,0.7-0.1,1-0.2c0.3-0.2,0.5-0.4,0.7-0.6c0.2-0.3,0.4-0.6,0.5-0.9c0.1-0.3,0.2-0.7,0.2-1   c0-0.3-0.1-0.7-0.2-1c-0.1-0.3-0.3-0.6-0.5-0.9c-0.2-0.3-0.4-0.4-0.7-0.6c-0.3-0.1-0.6-0.2-1-0.2c-0.4,0-0.7,0.1-1,0.2   c-0.3,0.2-0.5,0.4-0.7,0.6c-0.2,0.3-0.3,0.5-0.4,0.9C255.9,72.9,255.8,73.2,255.8,73.6"></path>
	<polygon style="clip-path:url(#SVGID_00000013181134353794330700000012664968435576150409_);fill:#0C9ED9;" points="269.9,77.6    269.9,72.3 267.8,76.3 267,76.3 264.9,72.3 264.9,77.6 263.3,77.6 263.3,69.5 265,69.5 267.4,74.1 269.8,69.5 271.5,69.5    271.5,77.6  "></polygon>
	<path style="clip-path:url(#SVGID_00000013181134353794330700000012664968435576150409_);fill:#0C9ED9;" d="M273.2,77.6v-8.1h3.4   c0.4,0,0.7,0.1,1,0.2c0.3,0.2,0.6,0.4,0.8,0.6c0.2,0.3,0.4,0.5,0.5,0.9c0.1,0.3,0.2,0.6,0.2,1c0,0.3-0.1,0.7-0.2,1   c-0.1,0.3-0.3,0.6-0.5,0.9c-0.2,0.3-0.5,0.5-0.8,0.6c-0.3,0.1-0.7,0.2-1,0.2h-1.9v2.7H273.2z M274.8,73.5h1.8   c0.3,0,0.5-0.1,0.7-0.4c0.2-0.2,0.3-0.6,0.3-1c0-0.2,0-0.4-0.1-0.6c-0.1-0.2-0.1-0.3-0.2-0.4c-0.1-0.1-0.2-0.2-0.3-0.3   c-0.1-0.1-0.3-0.1-0.4-0.1h-1.8V73.5z"></path>
	<path style="clip-path:url(#SVGID_00000013181134353794330700000012664968435576150409_);fill:#0C9ED9;" d="M282.1,69.5h1.4   l3.1,8.1h-1.6l-0.8-2h-2.8l-0.7,2H279L282.1,69.5z M283.9,74.5l-1.1-3.2l-1.2,3.2H283.9z"></path>
	<polygon style="clip-path:url(#SVGID_00000013181134353794330700000012664968435576150409_);fill:#0C9ED9;" points="289,72.4    289,77.6 287.4,77.6 287.4,69.5 288.7,69.5 292.9,74.8 292.9,69.5 294.5,69.5 294.5,77.6 293.2,77.6  "></polygon>
	<polygon style="clip-path:url(#SVGID_00000013181134353794330700000012664968435576150409_);fill:#0C9ED9;" points="297.1,69.5    299.1,73.4 301.1,69.5 302.8,69.5 299.8,74.8 299.8,77.6 298.3,77.6 298.3,74.8 295.3,69.5  "></polygon>
	<path style="clip-path:url(#SVGID_00000013181134353794330700000012664968435576150409_);fill:#005072;" d="M36.4,17.9   C20,20.2,7.3,33.6,5.9,50.2H12c1.2-11.9,9.6-21.8,20.7-25.2C33.8,22.4,35,20,36.4,17.9"></path>
	
		<rect x="49.5" y="18.4" transform="matrix(0.4179 -0.9085 0.9085 0.4179 4.9056 63.1509)" style="clip-path:url(#SVGID_00000013181134353794330700000012664968435576150409_);fill:#0C9ED9;" width="4.4" height="18.7"></rect>
	
		<rect x="46.5" y="28.3" transform="matrix(0.4179 -0.9085 0.9085 0.4179 -5.8078 66.1447)" style="clip-path:url(#SVGID_00000013181134353794330700000012664968435576150409_);fill:#005072;" width="4.4" height="18.7"></rect>
	
		<rect x="31.4" y="59.2" transform="matrix(0.4178 -0.9085 0.9085 0.4178 -42.7154 70.4575)" style="clip-path:url(#SVGID_00000013181134353794330700000012664968435576150409_);fill:#0C9ED9;" width="4.4" height="18.7"></rect>
	
		<rect x="28.4" y="69.1" transform="matrix(0.4179 -0.9085 0.9085 0.4179 -53.4287 73.4481)" style="clip-path:url(#SVGID_00000013181134353794330700000012664968435576150409_);fill:#005072;" width="4.4" height="18.7"></rect>
	<path style="clip-path:url(#SVGID_00000013181134353794330700000012664968435576150409_);fill:#005072;" d="M26,81.8   c0-0.7-0.2-1.4-0.2-2.2c0,0,0,0,0,0c0-0.4,0-0.8,0-1.1c0,0,0,0,0,0c0-2.2,0.3-4.7,1.2-7.3c2.2-6.3,7.6-11.4,15.9-15.2   c9.9-4.6,16.3-10.9,19.1-18.7c0.5-1.4,0.8-2.8,1.1-4.2c0,0,0,0,0,0c0-0.1,0-0.1,0-0.2c0.2-0.9,0.3-1.9,0.3-2.8c0,0,0-0.1,0-0.1   c0-0.1,0-0.2,0-0.3c0,0,0,0,0-0.1c0-0.2,0-0.5,0-0.7c0-0.1,0-0.2,0-0.3c0-0.2,0-0.5,0-0.7c0-0.1,0-0.2,0-0.3c0-0.2,0-0.4,0-0.7   c0-0.1,0-0.2,0-0.3c0-0.2,0-0.5,0-0.7c0-0.1,0-0.1,0-0.2c0-0.3-0.1-0.6-0.1-0.9c-2.1-1.6-4.3-2.9-6.7-4c-0.2-0.1-0.4,0.1-0.3,0.3   c0.4,1.2,1.1,4.1,1.1,7.1c0,0,0,0,0,0c0,2.1-0.3,4.4-1.1,6.8c-2.2,6.2-7.5,11.4-15.9,15.2C30.4,54.8,24,61.1,21.2,69   c-1.7,4.7-1.8,9-1.4,12.7c2,1.6,4.3,2.9,6.6,4c0.2,0.1,0.4-0.1,0.4-0.3C26.5,84.6,26.1,82.8,26,81.8"></path>
	<path style="clip-path:url(#SVGID_00000013181134353794330700000012664968435576150409_);fill:#0C9ED9;" d="M38.1,44.4   c0.7-0.3,1.4-0.6,2.1-0.9c0.8-0.4,1.6-0.9,2.3-1.4c-0.8-12.9,5.6-21.1,11-25l2.5-8c0.1-0.2-0.2-0.4-0.4-0.3   c-6.6,3.2-21.8,14-19,36.2C37,44.8,37.5,44.6,38.1,44.4"></path>
	<path style="clip-path:url(#SVGID_00000013181134353794330700000012664968435576150409_);fill:#0C9ED9;" d="M45.4,61.4   c-1.8,0.8-3.4,1.7-4.9,2.7c1,13.1-5.6,21.5-11,25.4l0,0l-2.4,8c-0.1,0.2,0.2,0.4,0.3,0.3c6.7-3.2,22.1-14.2,19-36.8   C46,61.1,45.7,61.3,45.4,61.4"></path>
	<path style="clip-path:url(#SVGID_00000013181134353794330700000012664968435576150409_);fill:#005072;" d="M70.9,56.4   c-1.2,11.9-9.6,21.8-20.7,25.2c-1,2.6-2.3,5-3.6,7.1C62.9,86.3,75.7,73,77.1,56.4H70.9z"></path>
	<path style="clip-path:url(#SVGID_00000013181134353794330700000012664968435576150409_);fill:#0C9ED9;" d="M69.4,31   c-0.2,2.6-0.7,5.3-1.7,8.1c0,0.1-0.1,0.1-0.1,0.2c1.8,3.3,2.9,7,3.3,10.9h6.1C76.5,43,73.7,36.4,69.4,31"></path>
	<path style="clip-path:url(#SVGID_00000013181134353794330700000012664968435576150409_);fill:#0C9ED9;" d="M15.3,67.2   c-1.8-3.3-2.9-6.9-3.3-10.8H5.8c0.6,7.3,3.4,13.9,7.7,19.3C13.8,72.9,14.3,70.1,15.3,67.2"></path>
</g>
</svg>
